<svg aria-roledescription="er" viewBox="0 0 564.9453125 452.55078125" style="max-width: 564.945px; background-color: white;" xmlns:xlink="http://www.w3.org/1999/xlink" xmlns="http://www.w3.org/2000/svg" width="100%" id="mermaid-0"><style>#mermaid-0{font-family:"trebuchet ms",verdana,arial,sans-serif;font-size:16px;fill:#000000;}#mermaid-0 .error-icon{fill:#552222;}#mermaid-0 .error-text{fill:#552222;stroke:#552222;}#mermaid-0 .edge-thickness-normal{stroke-width:2px;}#mermaid-0 .edge-thickness-thick{stroke-width:3.5px;}#mermaid-0 .edge-pattern-solid{stroke-dasharray:0;}#mermaid-0 .edge-pattern-dashed{stroke-dasharray:3;}#mermaid-0 .edge-pattern-dotted{stroke-dasharray:2;}#mermaid-0 .marker{fill:#000000;stroke:#000000;}#mermaid-0 .marker.cross{stroke:#000000;}#mermaid-0 svg{font-family:"trebuchet ms",verdana,arial,sans-serif;font-size:16px;}#mermaid-0 .entityBox{fill:#cde498;stroke:#13540c;}#mermaid-0 .attributeBoxOdd{fill:#ffffff;stroke:#13540c;}#mermaid-0 .attributeBoxEven{fill:#f2f2f2;stroke:#13540c;}#mermaid-0 .relationshipLabelBox{fill:hsl(78.1578947368, 58.4615384615%, 84.5098039216%);opacity:0.7;background-color:hsl(78.1578947368, 58.4615384615%, 84.5098039216%);}#mermaid-0 .relationshipLabelBox rect{opacity:0.5;}#mermaid-0 .relationshipLine{stroke:#000000;}#mermaid-0 .entityTitleText{text-anchor:middle;font-size:18px;fill:#000000;}#mermaid-0 :root{--mermaid-font-family:"trebuchet ms",verdana,arial,sans-serif;}</style><g/><defs><marker orient="auto" markerHeight="18" markerWidth="18" refY="9" refX="0" id="ONLY_ONE_START"><path d="M9,0 L9,18 M15,0 L15,18" fill="none" stroke="gray"/></marker></defs><defs><marker orient="auto" markerHeight="18" markerWidth="18" refY="9" refX="18" id="ONLY_ONE_END"><path d="M3,0 L3,18 M9,0 L9,18" fill="none" stroke="gray"/></marker></defs><defs><marker orient="auto" markerHeight="18" markerWidth="30" refY="9" refX="0" id="ZERO_OR_ONE_START"><circle r="6" cy="9" cx="21" fill="white" stroke="gray"/><path d="M9,0 L9,18" fill="none" stroke="gray"/></marker></defs><defs><marker orient="auto" markerHeight="18" markerWidth="30" refY="9" refX="30" id="ZERO_OR_ONE_END"><circle r="6" cy="9" cx="9" fill="white" stroke="gray"/><path d="M21,0 L21,18" fill="none" stroke="gray"/></marker></defs><defs><marker orient="auto" markerHeight="36" markerWidth="45" refY="18" refX="18" id="ONE_OR_MORE_START"><path d="M0,18 Q 18,0 36,18 Q 18,36 0,18 M42,9 L42,27" fill="none" stroke="gray"/></marker></defs><defs><marker orient="auto" markerHeight="36" markerWidth="45" refY="18" refX="27" id="ONE_OR_MORE_END"><path d="M3,9 L3,27 M9,18 Q27,0 45,18 Q27,36 9,18" fill="none" stroke="gray"/></marker></defs><defs><marker orient="auto" markerHeight="36" markerWidth="57" refY="18" refX="18" id="ZERO_OR_MORE_START"><circle r="6" cy="18" cx="48" fill="white" stroke="gray"/><path d="M0,18 Q18,0 36,18 Q18,36 0,18" fill="none" stroke="gray"/></marker></defs><defs><marker orient="auto" markerHeight="36" markerWidth="57" refY="18" refX="39" id="ZERO_OR_MORE_END"><circle r="6" cy="18" cx="9" fill="white" stroke="gray"/><path d="M21,18 Q39,0 57,18 Q39,36 21,18" fill="none" stroke="gray"/></marker></defs><path style="stroke: gray; fill: none;" marker-start="url(#ZERO_OR_MORE_START)" marker-end="url(#ONLY_ONE_END)" d="M287.76184266334025,110.18359375L269.04111888611686,125.86555989583333C250.3203951088935,141.54752604166666,212.87894755444677,172.91145833333334,194.15822377722338,196.9267578125C175.4375,220.94205729166666,175.4375,237.60872395833334,175.4375,245.94205729166666L175.4375,254.275390625" class="er relationshipLine"/><path style="stroke: gray; fill: none;" marker-start="url(#ZERO_OR_MORE_START)" marker-end="url(#ONLY_ONE_END)" d="M342.78503233665975,110.18359375L361.50575611388314,125.86555989583333C380.22647989110646,141.54752604166666,417.66792744555323,172.91145833333334,436.3886512227766,198.76009114583334C455.109375,224.60872395833334,455.109375,244.94205729166666,455.109375,255.10872395833334L455.109375,265.275390625" class="er relationshipLine"/><g transform="translate(85.6015625,254.275390625 )" id="entity-products-0de8914e-f371-473c-b5e3-2725779b4fc3"><rect height="178.275390625" width="179.671875" y="0" x="0" class="er entityBox"/><text style="dominant-baseline: middle; text-anchor: middle; font-size: 12px;" transform="translate(89.8359375,12)" y="0" x="0" id="text-entity-products-0de8914e-f371-473c-b5e3-2725779b4fc3" class="er entityLabel">products</text><rect height="22.091796875" width="53.671875" y="24" x="0" class="er attributeBoxOdd"/><text style="dominant-baseline: middle; font-size: 10.2px;" transform="translate(5,35.0458984375)" y="0" x="0" id="text-entity-products-0de8914e-f371-473c-b5e3-2725779b4fc3-attr-1-type" class="er entityLabel">String</text><rect height="22.091796875" width="57.65625" y="24" x="53.671875" class="er attributeBoxOdd"/><text style="dominant-baseline: middle; font-size: 10.2px;" transform="translate(58.671875,35.0458984375)" y="0" x="0" id="text-entity-products-0de8914e-f371-473c-b5e3-2725779b4fc3-attr-1-name" class="er entityLabel">id</text><rect height="22.091796875" width="21.5625" y="24" x="111.328125" class="er attributeBoxOdd"/><text style="dominant-baseline: middle; font-size: 10.2px;" transform="translate(116.328125,35.0458984375)" y="0" x="0" id="text-entity-products-0de8914e-f371-473c-b5e3-2725779b4fc3-attr-1-key" class="er entityLabel">PK</text><rect height="22.091796875" width="46.78125" y="24" x="132.890625" class="er attributeBoxOdd"/><text style="dominant-baseline: middle; font-size: 10.2px;" transform="translate(137.890625,35.0458984375)" y="0" x="0" id="text-entity-products-0de8914e-f371-473c-b5e3-2725779b4fc3-attr-1-comment" class="er entityLabel"/><rect height="22.091796875" width="53.671875" y="46.091796875" x="0" class="er attributeBoxEven"/><text style="dominant-baseline: middle; font-size: 10.2px;" transform="translate(5,57.1376953125)" y="0" x="0" id="text-entity-products-0de8914e-f371-473c-b5e3-2725779b4fc3-attr-2-type" class="er entityLabel">String</text><rect height="22.091796875" width="57.65625" y="46.091796875" x="53.671875" class="er attributeBoxEven"/><text style="dominant-baseline: middle; font-size: 10.2px;" transform="translate(58.671875,57.1376953125)" y="0" x="0" id="text-entity-products-0de8914e-f371-473c-b5e3-2725779b4fc3-attr-2-name" class="er entityLabel">name</text><rect height="22.091796875" width="21.5625" y="46.091796875" x="111.328125" class="er attributeBoxEven"/><text style="dominant-baseline: middle; font-size: 10.2px;" transform="translate(116.328125,57.1376953125)" y="0" x="0" id="text-entity-products-0de8914e-f371-473c-b5e3-2725779b4fc3-attr-2-key" class="er entityLabel"/><rect height="22.091796875" width="46.78125" y="46.091796875" x="132.890625" class="er attributeBoxEven"/><text style="dominant-baseline: middle; font-size: 10.2px;" transform="translate(137.890625,57.1376953125)" y="0" x="0" id="text-entity-products-0de8914e-f371-473c-b5e3-2725779b4fc3-attr-2-comment" class="er entityLabel"/><rect height="22" width="53.671875" y="68.18359375" x="0" class="er attributeBoxOdd"/><text style="dominant-baseline: middle; font-size: 10.2px;" transform="translate(5,79.18359375)" y="0" x="0" id="text-entity-products-0de8914e-f371-473c-b5e3-2725779b4fc3-attr-3-type" class="er entityLabel">Boolean</text><rect height="22" width="57.65625" y="68.18359375" x="53.671875" class="er attributeBoxOdd"/><text style="dominant-baseline: middle; font-size: 10.2px;" transform="translate(58.671875,79.18359375)" y="0" x="0" id="text-entity-products-0de8914e-f371-473c-b5e3-2725779b4fc3-attr-3-name" class="er entityLabel">checked</text><rect height="22" width="21.5625" y="68.18359375" x="111.328125" class="er attributeBoxOdd"/><text style="dominant-baseline: middle; font-size: 10.2px;" transform="translate(116.328125,79.18359375)" y="0" x="0" id="text-entity-products-0de8914e-f371-473c-b5e3-2725779b4fc3-attr-3-key" class="er entityLabel"/><rect height="22" width="46.78125" y="68.18359375" x="132.890625" class="er attributeBoxOdd"/><text style="dominant-baseline: middle; font-size: 10.2px;" transform="translate(137.890625,79.18359375)" y="0" x="0" id="text-entity-products-0de8914e-f371-473c-b5e3-2725779b4fc3-attr-3-comment" class="er entityLabel"/><rect height="22" width="53.671875" y="90.18359375" x="0" class="er attributeBoxEven"/><text style="dominant-baseline: middle; font-size: 10.2px;" transform="translate(5,101.18359375)" y="0" x="0" id="text-entity-products-0de8914e-f371-473c-b5e3-2725779b4fc3-attr-4-type" class="er entityLabel">DateTime</text><rect height="22" width="57.65625" y="90.18359375" x="53.671875" class="er attributeBoxEven"/><text style="dominant-baseline: middle; font-size: 10.2px;" transform="translate(58.671875,101.18359375)" y="0" x="0" id="text-entity-products-0de8914e-f371-473c-b5e3-2725779b4fc3-attr-4-name" class="er entityLabel">createdAt</text><rect height="22" width="21.5625" y="90.18359375" x="111.328125" class="er attributeBoxEven"/><text style="dominant-baseline: middle; font-size: 10.2px;" transform="translate(116.328125,101.18359375)" y="0" x="0" id="text-entity-products-0de8914e-f371-473c-b5e3-2725779b4fc3-attr-4-key" class="er entityLabel"/><rect height="22" width="46.78125" y="90.18359375" x="132.890625" class="er attributeBoxEven"/><text style="dominant-baseline: middle; font-size: 10.2px;" transform="translate(137.890625,101.18359375)" y="0" x="0" id="text-entity-products-0de8914e-f371-473c-b5e3-2725779b4fc3-attr-4-comment" class="er entityLabel"/><rect height="22.091796875" width="53.671875" y="112.18359375" x="0" class="er attributeBoxOdd"/><text style="dominant-baseline: middle; font-size: 10.2px;" transform="translate(5,123.2294921875)" y="0" x="0" id="text-entity-products-0de8914e-f371-473c-b5e3-2725779b4fc3-attr-5-type" class="er entityLabel">DateTime</text><rect height="22.091796875" width="57.65625" y="112.18359375" x="53.671875" class="er attributeBoxOdd"/><text style="dominant-baseline: middle; font-size: 10.2px;" transform="translate(58.671875,123.2294921875)" y="0" x="0" id="text-entity-products-0de8914e-f371-473c-b5e3-2725779b4fc3-attr-5-name" class="er entityLabel">updatedAt</text><rect height="22.091796875" width="21.5625" y="112.18359375" x="111.328125" class="er attributeBoxOdd"/><text style="dominant-baseline: middle; font-size: 10.2px;" transform="translate(116.328125,123.2294921875)" y="0" x="0" id="text-entity-products-0de8914e-f371-473c-b5e3-2725779b4fc3-attr-5-key" class="er entityLabel"/><rect height="22.091796875" width="46.78125" y="112.18359375" x="132.890625" class="er attributeBoxOdd"/><text style="dominant-baseline: middle; font-size: 10.2px;" transform="translate(137.890625,123.2294921875)" y="0" x="0" id="text-entity-products-0de8914e-f371-473c-b5e3-2725779b4fc3-attr-5-comment" class="er entityLabel"/><rect height="22" width="53.671875" y="134.275390625" x="0" class="er attributeBoxEven"/><text style="dominant-baseline: middle; font-size: 10.2px;" transform="translate(5,145.275390625)" y="0" x="0" id="text-entity-products-0de8914e-f371-473c-b5e3-2725779b4fc3-attr-6-type" class="er entityLabel">DateTime</text><rect height="22" width="57.65625" y="134.275390625" x="53.671875" class="er attributeBoxEven"/><text style="dominant-baseline: middle; font-size: 10.2px;" transform="translate(58.671875,145.275390625)" y="0" x="0" id="text-entity-products-0de8914e-f371-473c-b5e3-2725779b4fc3-attr-6-name" class="er entityLabel">deletedAt</text><rect height="22" width="21.5625" y="134.275390625" x="111.328125" class="er attributeBoxEven"/><text style="dominant-baseline: middle; font-size: 10.2px;" transform="translate(116.328125,145.275390625)" y="0" x="0" id="text-entity-products-0de8914e-f371-473c-b5e3-2725779b4fc3-attr-6-key" class="er entityLabel"/><rect height="22" width="46.78125" y="134.275390625" x="132.890625" class="er attributeBoxEven"/><text style="dominant-baseline: middle; font-size: 10.2px;" transform="translate(137.890625,145.275390625)" y="0" x="0" id="text-entity-products-0de8914e-f371-473c-b5e3-2725779b4fc3-attr-6-comment" class="er entityLabel">nullable</text><rect height="22" width="53.671875" y="156.275390625" x="0" class="er attributeBoxOdd"/><text style="dominant-baseline: middle; font-size: 10.2px;" transform="translate(5,167.275390625)" y="0" x="0" id="text-entity-products-0de8914e-f371-473c-b5e3-2725779b4fc3-attr-7-type" class="er entityLabel">Boolean</text><rect height="22" width="57.65625" y="156.275390625" x="53.671875" class="er attributeBoxOdd"/><text style="dominant-baseline: middle; font-size: 10.2px;" transform="translate(58.671875,167.275390625)" y="0" x="0" id="text-entity-products-0de8914e-f371-473c-b5e3-2725779b4fc3-attr-7-name" class="er entityLabel">isDeleted</text><rect height="22" width="21.5625" y="156.275390625" x="111.328125" class="er attributeBoxOdd"/><text style="dominant-baseline: middle; font-size: 10.2px;" transform="translate(116.328125,167.275390625)" y="0" x="0" id="text-entity-products-0de8914e-f371-473c-b5e3-2725779b4fc3-attr-7-key" class="er entityLabel"/><rect height="22" width="46.78125" y="156.275390625" x="132.890625" class="er attributeBoxOdd"/><text style="dominant-baseline: middle; font-size: 10.2px;" transform="translate(137.890625,167.275390625)" y="0" x="0" id="text-entity-products-0de8914e-f371-473c-b5e3-2725779b4fc3-attr-7-comment" class="er entityLabel"/></g><g transform="translate(365.2734375,265.275390625 )" id="entity-categories-505ad590-c018-4edd-83c6-05a62633c50b"><rect height="156.275390625" width="179.671875" y="0" x="0" class="er entityBox"/><text style="dominant-baseline: middle; text-anchor: middle; font-size: 12px;" transform="translate(89.8359375,12)" y="0" x="0" id="text-entity-categories-505ad590-c018-4edd-83c6-05a62633c50b" class="er entityLabel">categories</text><rect height="22.091796875" width="53.671875" y="24" x="0" class="er attributeBoxOdd"/><text style="dominant-baseline: middle; font-size: 10.2px;" transform="translate(5,35.0458984375)" y="0" x="0" id="text-entity-categories-505ad590-c018-4edd-83c6-05a62633c50b-attr-1-type" class="er entityLabel">String</text><rect height="22.091796875" width="57.65625" y="24" x="53.671875" class="er attributeBoxOdd"/><text style="dominant-baseline: middle; font-size: 10.2px;" transform="translate(58.671875,35.0458984375)" y="0" x="0" id="text-entity-categories-505ad590-c018-4edd-83c6-05a62633c50b-attr-1-name" class="er entityLabel">id</text><rect height="22.091796875" width="21.5625" y="24" x="111.328125" class="er attributeBoxOdd"/><text style="dominant-baseline: middle; font-size: 10.2px;" transform="translate(116.328125,35.0458984375)" y="0" x="0" id="text-entity-categories-505ad590-c018-4edd-83c6-05a62633c50b-attr-1-key" class="er entityLabel">PK</text><rect height="22.091796875" width="46.78125" y="24" x="132.890625" class="er attributeBoxOdd"/><text style="dominant-baseline: middle; font-size: 10.2px;" transform="translate(137.890625,35.0458984375)" y="0" x="0" id="text-entity-categories-505ad590-c018-4edd-83c6-05a62633c50b-attr-1-comment" class="er entityLabel"/><rect height="22.091796875" width="53.671875" y="46.091796875" x="0" class="er attributeBoxEven"/><text style="dominant-baseline: middle; font-size: 10.2px;" transform="translate(5,57.1376953125)" y="0" x="0" id="text-entity-categories-505ad590-c018-4edd-83c6-05a62633c50b-attr-2-type" class="er entityLabel">String</text><rect height="22.091796875" width="57.65625" y="46.091796875" x="53.671875" class="er attributeBoxEven"/><text style="dominant-baseline: middle; font-size: 10.2px;" transform="translate(58.671875,57.1376953125)" y="0" x="0" id="text-entity-categories-505ad590-c018-4edd-83c6-05a62633c50b-attr-2-name" class="er entityLabel">name</text><rect height="22.091796875" width="21.5625" y="46.091796875" x="111.328125" class="er attributeBoxEven"/><text style="dominant-baseline: middle; font-size: 10.2px;" transform="translate(116.328125,57.1376953125)" y="0" x="0" id="text-entity-categories-505ad590-c018-4edd-83c6-05a62633c50b-attr-2-key" class="er entityLabel"/><rect height="22.091796875" width="46.78125" y="46.091796875" x="132.890625" class="er attributeBoxEven"/><text style="dominant-baseline: middle; font-size: 10.2px;" transform="translate(137.890625,57.1376953125)" y="0" x="0" id="text-entity-categories-505ad590-c018-4edd-83c6-05a62633c50b-attr-2-comment" class="er entityLabel"/><rect height="22" width="53.671875" y="68.18359375" x="0" class="er attributeBoxOdd"/><text style="dominant-baseline: middle; font-size: 10.2px;" transform="translate(5,79.18359375)" y="0" x="0" id="text-entity-categories-505ad590-c018-4edd-83c6-05a62633c50b-attr-3-type" class="er entityLabel">DateTime</text><rect height="22" width="57.65625" y="68.18359375" x="53.671875" class="er attributeBoxOdd"/><text style="dominant-baseline: middle; font-size: 10.2px;" transform="translate(58.671875,79.18359375)" y="0" x="0" id="text-entity-categories-505ad590-c018-4edd-83c6-05a62633c50b-attr-3-name" class="er entityLabel">createdAt</text><rect height="22" width="21.5625" y="68.18359375" x="111.328125" class="er attributeBoxOdd"/><text style="dominant-baseline: middle; font-size: 10.2px;" transform="translate(116.328125,79.18359375)" y="0" x="0" id="text-entity-categories-505ad590-c018-4edd-83c6-05a62633c50b-attr-3-key" class="er entityLabel"/><rect height="22" width="46.78125" y="68.18359375" x="132.890625" class="er attributeBoxOdd"/><text style="dominant-baseline: middle; font-size: 10.2px;" transform="translate(137.890625,79.18359375)" y="0" x="0" id="text-entity-categories-505ad590-c018-4edd-83c6-05a62633c50b-attr-3-comment" class="er entityLabel"/><rect height="22.091796875" width="53.671875" y="90.18359375" x="0" class="er attributeBoxEven"/><text style="dominant-baseline: middle; font-size: 10.2px;" transform="translate(5,101.2294921875)" y="0" x="0" id="text-entity-categories-505ad590-c018-4edd-83c6-05a62633c50b-attr-4-type" class="er entityLabel">DateTime</text><rect height="22.091796875" width="57.65625" y="90.18359375" x="53.671875" class="er attributeBoxEven"/><text style="dominant-baseline: middle; font-size: 10.2px;" transform="translate(58.671875,101.2294921875)" y="0" x="0" id="text-entity-categories-505ad590-c018-4edd-83c6-05a62633c50b-attr-4-name" class="er entityLabel">updatedAt</text><rect height="22.091796875" width="21.5625" y="90.18359375" x="111.328125" class="er attributeBoxEven"/><text style="dominant-baseline: middle; font-size: 10.2px;" transform="translate(116.328125,101.2294921875)" y="0" x="0" id="text-entity-categories-505ad590-c018-4edd-83c6-05a62633c50b-attr-4-key" class="er entityLabel"/><rect height="22.091796875" width="46.78125" y="90.18359375" x="132.890625" class="er attributeBoxEven"/><text style="dominant-baseline: middle; font-size: 10.2px;" transform="translate(137.890625,101.2294921875)" y="0" x="0" id="text-entity-categories-505ad590-c018-4edd-83c6-05a62633c50b-attr-4-comment" class="er entityLabel"/><rect height="22" width="53.671875" y="112.275390625" x="0" class="er attributeBoxOdd"/><text style="dominant-baseline: middle; font-size: 10.2px;" transform="translate(5,123.275390625)" y="0" x="0" id="text-entity-categories-505ad590-c018-4edd-83c6-05a62633c50b-attr-5-type" class="er entityLabel">DateTime</text><rect height="22" width="57.65625" y="112.275390625" x="53.671875" class="er attributeBoxOdd"/><text style="dominant-baseline: middle; font-size: 10.2px;" transform="translate(58.671875,123.275390625)" y="0" x="0" id="text-entity-categories-505ad590-c018-4edd-83c6-05a62633c50b-attr-5-name" class="er entityLabel">deletedAt</text><rect height="22" width="21.5625" y="112.275390625" x="111.328125" class="er attributeBoxOdd"/><text style="dominant-baseline: middle; font-size: 10.2px;" transform="translate(116.328125,123.275390625)" y="0" x="0" id="text-entity-categories-505ad590-c018-4edd-83c6-05a62633c50b-attr-5-key" class="er entityLabel"/><rect height="22" width="46.78125" y="112.275390625" x="132.890625" class="er attributeBoxOdd"/><text style="dominant-baseline: middle; font-size: 10.2px;" transform="translate(137.890625,123.275390625)" y="0" x="0" id="text-entity-categories-505ad590-c018-4edd-83c6-05a62633c50b-attr-5-comment" class="er entityLabel">nullable</text><rect height="22" width="53.671875" y="134.275390625" x="0" class="er attributeBoxEven"/><text style="dominant-baseline: middle; font-size: 10.2px;" transform="translate(5,145.275390625)" y="0" x="0" id="text-entity-categories-505ad590-c018-4edd-83c6-05a62633c50b-attr-6-type" class="er entityLabel">Boolean</text><rect height="22" width="57.65625" y="134.275390625" x="53.671875" class="er attributeBoxEven"/><text style="dominant-baseline: middle; font-size: 10.2px;" transform="translate(58.671875,145.275390625)" y="0" x="0" id="text-entity-categories-505ad590-c018-4edd-83c6-05a62633c50b-attr-6-name" class="er entityLabel">isDeleted</text><rect height="22" width="21.5625" y="134.275390625" x="111.328125" class="er attributeBoxEven"/><text style="dominant-baseline: middle; font-size: 10.2px;" transform="translate(116.328125,145.275390625)" y="0" x="0" id="text-entity-categories-505ad590-c018-4edd-83c6-05a62633c50b-attr-6-key" class="er entityLabel"/><rect height="22" width="46.78125" y="134.275390625" x="132.890625" class="er attributeBoxEven"/><text style="dominant-baseline: middle; font-size: 10.2px;" transform="translate(137.890625,145.275390625)" y="0" x="0" id="text-entity-categories-505ad590-c018-4edd-83c6-05a62633c50b-attr-6-comment" class="er entityLabel"/></g><g transform="translate(20,20 )" id="entity-User-a526b30f-a6f3-4e68-aad9-b1631aabca43"><rect height="134.275390625" width="130.53125" y="0" x="0" class="er entityBox"/><text style="dominant-baseline: middle; text-anchor: middle; font-size: 12px;" transform="translate(65.265625,12)" y="0" x="0" id="text-entity-User-a526b30f-a6f3-4e68-aad9-b1631aabca43" class="er entityLabel">User</text><rect height="22" width="53.671875" y="24" x="0" class="er attributeBoxOdd"/><text style="dominant-baseline: middle; font-size: 10.2px;" transform="translate(5,35)" y="0" x="0" id="text-entity-User-a526b30f-a6f3-4e68-aad9-b1631aabca43-attr-1-type" class="er entityLabel">Int</text><rect height="22" width="55.296875" y="24" x="53.671875" class="er attributeBoxOdd"/><text style="dominant-baseline: middle; font-size: 10.2px;" transform="translate(58.671875,35)" y="0" x="0" id="text-entity-User-a526b30f-a6f3-4e68-aad9-b1631aabca43-attr-1-name" class="er entityLabel">id</text><rect height="22" width="21.5625" y="24" x="108.96875" class="er attributeBoxOdd"/><text style="dominant-baseline: middle; font-size: 10.2px;" transform="translate(113.96875,35)" y="0" x="0" id="text-entity-User-a526b30f-a6f3-4e68-aad9-b1631aabca43-attr-1-key" class="er entityLabel">PK</text><rect height="22.091796875" width="53.671875" y="46" x="0" class="er attributeBoxEven"/><text style="dominant-baseline: middle; font-size: 10.2px;" transform="translate(5,57.0458984375)" y="0" x="0" id="text-entity-User-a526b30f-a6f3-4e68-aad9-b1631aabca43-attr-2-type" class="er entityLabel">String</text><rect height="22.091796875" width="55.296875" y="46" x="53.671875" class="er attributeBoxEven"/><text style="dominant-baseline: middle; font-size: 10.2px;" transform="translate(58.671875,57.0458984375)" y="0" x="0" id="text-entity-User-a526b30f-a6f3-4e68-aad9-b1631aabca43-attr-2-name" class="er entityLabel">name</text><rect height="22.091796875" width="21.5625" y="46" x="108.96875" class="er attributeBoxEven"/><text style="dominant-baseline: middle; font-size: 10.2px;" transform="translate(113.96875,57.0458984375)" y="0" x="0" id="text-entity-User-a526b30f-a6f3-4e68-aad9-b1631aabca43-attr-2-key" class="er entityLabel"/><rect height="22.091796875" width="53.671875" y="68.091796875" x="0" class="er attributeBoxOdd"/><text style="dominant-baseline: middle; font-size: 10.2px;" transform="translate(5,79.1376953125)" y="0" x="0" id="text-entity-User-a526b30f-a6f3-4e68-aad9-b1631aabca43-attr-3-type" class="er entityLabel">String</text><rect height="22.091796875" width="55.296875" y="68.091796875" x="53.671875" class="er attributeBoxOdd"/><text style="dominant-baseline: middle; font-size: 10.2px;" transform="translate(58.671875,79.1376953125)" y="0" x="0" id="text-entity-User-a526b30f-a6f3-4e68-aad9-b1631aabca43-attr-3-name" class="er entityLabel">email</text><rect height="22.091796875" width="21.5625" y="68.091796875" x="108.96875" class="er attributeBoxOdd"/><text style="dominant-baseline: middle; font-size: 10.2px;" transform="translate(113.96875,79.1376953125)" y="0" x="0" id="text-entity-User-a526b30f-a6f3-4e68-aad9-b1631aabca43-attr-3-key" class="er entityLabel"/><rect height="22.091796875" width="53.671875" y="90.18359375" x="0" class="er attributeBoxEven"/><text style="dominant-baseline: middle; font-size: 10.2px;" transform="translate(5,101.2294921875)" y="0" x="0" id="text-entity-User-a526b30f-a6f3-4e68-aad9-b1631aabca43-attr-4-type" class="er entityLabel">String</text><rect height="22.091796875" width="55.296875" y="90.18359375" x="53.671875" class="er attributeBoxEven"/><text style="dominant-baseline: middle; font-size: 10.2px;" transform="translate(58.671875,101.2294921875)" y="0" x="0" id="text-entity-User-a526b30f-a6f3-4e68-aad9-b1631aabca43-attr-4-name" class="er entityLabel">password</text><rect height="22.091796875" width="21.5625" y="90.18359375" x="108.96875" class="er attributeBoxEven"/><text style="dominant-baseline: middle; font-size: 10.2px;" transform="translate(113.96875,101.2294921875)" y="0" x="0" id="text-entity-User-a526b30f-a6f3-4e68-aad9-b1631aabca43-attr-4-key" class="er entityLabel"/><rect height="22" width="53.671875" y="112.275390625" x="0" class="er attributeBoxOdd"/><text style="dominant-baseline: middle; font-size: 10.2px;" transform="translate(5,123.275390625)" y="0" x="0" id="text-entity-User-a526b30f-a6f3-4e68-aad9-b1631aabca43-attr-5-type" class="er entityLabel">DateTime</text><rect height="22" width="55.296875" y="112.275390625" x="53.671875" class="er attributeBoxOdd"/><text style="dominant-baseline: middle; font-size: 10.2px;" transform="translate(58.671875,123.275390625)" y="0" x="0" id="text-entity-User-a526b30f-a6f3-4e68-aad9-b1631aabca43-attr-5-name" class="er entityLabel">createdAt</text><rect height="22" width="21.5625" y="112.275390625" x="108.96875" class="er attributeBoxOdd"/><text style="dominant-baseline: middle; font-size: 10.2px;" transform="translate(113.96875,123.275390625)" y="0" x="0" id="text-entity-User-a526b30f-a6f3-4e68-aad9-b1631aabca43-attr-5-key" class="er entityLabel"/></g><g transform="translate(250.53125,64.091796875 )" id="entity-categoryproducts-2ff6375b-a089-4d83-a0e0-ae40d8393f84"><rect height="46.091796875" width="129.484375" y="0" x="0" class="er entityBox"/><text style="dominant-baseline: middle; text-anchor: middle; font-size: 12px;" transform="translate(64.7421875,12)" y="0" x="0" id="text-entity-categoryproducts-2ff6375b-a089-4d83-a0e0-ae40d8393f84" class="er entityLabel">category_products</text><rect height="22.091796875" width="54.13020833333333" y="24" x="0" class="er attributeBoxOdd"/><text style="dominant-baseline: middle; font-size: 10.2px;" transform="translate(5,35.0458984375)" y="0" x="0" id="text-entity-categoryproducts-2ff6375b-a089-4d83-a0e0-ae40d8393f84-attr-1-type" class="er entityLabel">String</text><rect height="22.091796875" width="36.19270833333333" y="24" x="54.13020833333333" class="er attributeBoxOdd"/><text style="dominant-baseline: middle; font-size: 10.2px;" transform="translate(59.13020833333333,35.0458984375)" y="0" x="0" id="text-entity-categoryproducts-2ff6375b-a089-4d83-a0e0-ae40d8393f84-attr-1-name" class="er entityLabel">id</text><rect height="22.091796875" width="39.16145833333333" y="24" x="90.32291666666666" class="er attributeBoxOdd"/><text style="dominant-baseline: middle; font-size: 10.2px;" transform="translate(95.32291666666666,35.0458984375)" y="0" x="0" id="text-entity-categoryproducts-2ff6375b-a089-4d83-a0e0-ae40d8393f84-attr-1-key" class="er entityLabel">PK</text></g><rect height="14" width="41.734375" y="165.6315460205078" x="195.5202178955078" class="er relationshipLabelBox"/><text style="text-anchor: middle; dominant-baseline: middle; font-size: 12px;" y="172.6315460205078" x="216.3874053955078" id="rel1" class="er relationshipLabel">product</text><rect height="14" width="46.59375" y="169.5501708984375" x="394.1068115234375" class="er relationshipLabelBox"/><text style="text-anchor: middle; dominant-baseline: middle; font-size: 12px;" y="176.5501708984375" x="417.4036865234375" id="rel2" class="er relationshipLabel">category</text></svg>