<svg aria-roledescription="er" viewBox="0 0 566.1913452148438 440" style="max-width: 566.191px; background-color: white;" xmlns:xlink="http://www.w3.org/1999/xlink" xmlns="http://www.w3.org/2000/svg" width="100%" id="mermaid-0"><style>#mermaid-0{font-family:"trebuchet ms",verdana,arial,sans-serif;font-size:16px;fill:#000000;}#mermaid-0 .error-icon{fill:#552222;}#mermaid-0 .error-text{fill:#552222;stroke:#552222;}#mermaid-0 .edge-thickness-normal{stroke-width:2px;}#mermaid-0 .edge-thickness-thick{stroke-width:3.5px;}#mermaid-0 .edge-pattern-solid{stroke-dasharray:0;}#mermaid-0 .edge-pattern-dashed{stroke-dasharray:3;}#mermaid-0 .edge-pattern-dotted{stroke-dasharray:2;}#mermaid-0 .marker{fill:#000000;stroke:#000000;}#mermaid-0 .marker.cross{stroke:#000000;}#mermaid-0 svg{font-family:"trebuchet ms",verdana,arial,sans-serif;font-size:16px;}#mermaid-0 .entityBox{fill:#cde498;stroke:#13540c;}#mermaid-0 .attributeBoxOdd{fill:#ffffff;stroke:#13540c;}#mermaid-0 .attributeBoxEven{fill:#f2f2f2;stroke:#13540c;}#mermaid-0 .relationshipLabelBox{fill:hsl(78.1578947368, 58.4615384615%, 84.5098039216%);opacity:0.7;background-color:hsl(78.1578947368, 58.4615384615%, 84.5098039216%);}#mermaid-0 .relationshipLabelBox rect{opacity:0.5;}#mermaid-0 .relationshipLine{stroke:#000000;}#mermaid-0 .entityTitleText{text-anchor:middle;font-size:18px;fill:#000000;}#mermaid-0 :root{--mermaid-font-family:"trebuchet ms",verdana,arial,sans-serif;}</style><g/><defs><marker orient="auto" markerHeight="18" markerWidth="18" refY="9" refX="0" id="ONLY_ONE_START"><path d="M9,0 L9,18 M15,0 L15,18" fill="none" stroke="gray"/></marker></defs><defs><marker orient="auto" markerHeight="18" markerWidth="18" refY="9" refX="18" id="ONLY_ONE_END"><path d="M3,0 L3,18 M9,0 L9,18" fill="none" stroke="gray"/></marker></defs><defs><marker orient="auto" markerHeight="18" markerWidth="30" refY="9" refX="0" id="ZERO_OR_ONE_START"><circle r="6" cy="9" cx="21" fill="white" stroke="gray"/><path d="M9,0 L9,18" fill="none" stroke="gray"/></marker></defs><defs><marker orient="auto" markerHeight="18" markerWidth="30" refY="9" refX="30" id="ZERO_OR_ONE_END"><circle r="6" cy="9" cx="9" fill="white" stroke="gray"/><path d="M21,0 L21,18" fill="none" stroke="gray"/></marker></defs><defs><marker orient="auto" markerHeight="36" markerWidth="45" refY="18" refX="18" id="ONE_OR_MORE_START"><path d="M0,18 Q 18,0 36,18 Q 18,36 0,18 M42,9 L42,27" fill="none" stroke="gray"/></marker></defs><defs><marker orient="auto" markerHeight="36" markerWidth="45" refY="18" refX="27" id="ONE_OR_MORE_END"><path d="M3,9 L3,27 M9,18 Q27,0 45,18 Q27,36 9,18" fill="none" stroke="gray"/></marker></defs><defs><marker orient="auto" markerHeight="36" markerWidth="57" refY="18" refX="18" id="ZERO_OR_MORE_START"><circle r="6" cy="18" cx="48" fill="white" stroke="gray"/><path d="M0,18 Q18,0 36,18 Q18,36 0,18" fill="none" stroke="gray"/></marker></defs><defs><marker orient="auto" markerHeight="36" markerWidth="57" refY="18" refX="39" id="ZERO_OR_MORE_END"><circle r="6" cy="18" cx="9" fill="white" stroke="gray"/><path d="M21,18 Q39,0 57,18 Q39,36 21,18" fill="none" stroke="gray"/></marker></defs><path style="stroke: gray; fill: none;" marker-start="url(#ZERO_OR_MORE_START)" marker-end="url(#ONLY_ONE_END)" d="M288.7007053825012,107L269.9537611382497,122.33333333333333C251.2068168939982,137.66666666666666,213.71292840549518,168.33333333333334,194.96598416124368,192C176.2190399169922,215.66666666666666,176.2190399169922,232.33333333333334,176.2190399169922,240.66666666666666L176.2190399169922,249" class="er relationshipLine"/><path style="stroke: gray; fill: none;" marker-start="url(#ZERO_OR_MORE_START)" marker-end="url(#ONLY_ONE_END)" d="M343.71891131671754,107L362.46585556096903,122.33333333333333C381.2127998052206,137.66666666666666,418.7066882937236,168.33333333333334,437.453632537975,193.75C456.20057678222656,219.16666666666666,456.20057678222656,239.33333333333334,456.20057678222656,249.41666666666666L456.20057678222656,259.5" class="er relationshipLine"/><g transform="translate(86.228271484375,249 )" id="entity-products-21a9bfc7-99bb-4c3a-8370-7addbe85f877"><rect height="171" width="179.98153686523438" y="0" x="0" class="er entityBox"/><text style="dominant-baseline: middle; text-anchor: middle; font-size: 12px;" transform="translate(89.99076843261719,12)" y="0" x="0" id="text-entity-products-21a9bfc7-99bb-4c3a-8370-7addbe85f877" class="er entityLabel">products</text><rect height="21" width="54.113128662109375" y="24" x="0" class="er attributeBoxOdd"/><text style="dominant-baseline: middle; font-size: 10.2px;" transform="translate(5,34.5)" y="0" x="0" id="text-entity-products-21a9bfc7-99bb-4c3a-8370-7addbe85f877-attr-1-type" class="er entityLabel">String</text><rect height="21" width="56.620208740234375" y="24" x="54.113128662109375" class="er attributeBoxOdd"/><text style="dominant-baseline: middle; font-size: 10.2px;" transform="translate(59.113128662109375,34.5)" y="0" x="0" id="text-entity-products-21a9bfc7-99bb-4c3a-8370-7addbe85f877-attr-1-name" class="er entityLabel">id</text><rect height="21" width="23.79498291015625" y="24" x="110.73333740234375" class="er attributeBoxOdd"/><text style="dominant-baseline: middle; font-size: 10.2px;" transform="translate(115.73333740234375,34.5)" y="0" x="0" id="text-entity-products-21a9bfc7-99bb-4c3a-8370-7addbe85f877-attr-1-key" class="er entityLabel">PK</text><rect height="21" width="45.453216552734375" y="24" x="134.5283203125" class="er attributeBoxOdd"/><text style="dominant-baseline: middle; font-size: 10.2px;" transform="translate(139.5283203125,34.5)" y="0" x="0" id="text-entity-products-21a9bfc7-99bb-4c3a-8370-7addbe85f877-attr-1-comment" class="er entityLabel"/><rect height="21" width="54.113128662109375" y="45" x="0" class="er attributeBoxEven"/><text style="dominant-baseline: middle; font-size: 10.2px;" transform="translate(5,55.5)" y="0" x="0" id="text-entity-products-21a9bfc7-99bb-4c3a-8370-7addbe85f877-attr-2-type" class="er entityLabel">String</text><rect height="21" width="56.620208740234375" y="45" x="54.113128662109375" class="er attributeBoxEven"/><text style="dominant-baseline: middle; font-size: 10.2px;" transform="translate(59.113128662109375,55.5)" y="0" x="0" id="text-entity-products-21a9bfc7-99bb-4c3a-8370-7addbe85f877-attr-2-name" class="er entityLabel">name</text><rect height="21" width="23.79498291015625" y="45" x="110.73333740234375" class="er attributeBoxEven"/><text style="dominant-baseline: middle; font-size: 10.2px;" transform="translate(115.73333740234375,55.5)" y="0" x="0" id="text-entity-products-21a9bfc7-99bb-4c3a-8370-7addbe85f877-attr-2-key" class="er entityLabel"/><rect height="21" width="45.453216552734375" y="45" x="134.5283203125" class="er attributeBoxEven"/><text style="dominant-baseline: middle; font-size: 10.2px;" transform="translate(139.5283203125,55.5)" y="0" x="0" id="text-entity-products-21a9bfc7-99bb-4c3a-8370-7addbe85f877-attr-2-comment" class="er entityLabel"/><rect height="21" width="54.113128662109375" y="66" x="0" class="er attributeBoxOdd"/><text style="dominant-baseline: middle; font-size: 10.2px;" transform="translate(5,76.5)" y="0" x="0" id="text-entity-products-21a9bfc7-99bb-4c3a-8370-7addbe85f877-attr-3-type" class="er entityLabel">Boolean</text><rect height="21" width="56.620208740234375" y="66" x="54.113128662109375" class="er attributeBoxOdd"/><text style="dominant-baseline: middle; font-size: 10.2px;" transform="translate(59.113128662109375,76.5)" y="0" x="0" id="text-entity-products-21a9bfc7-99bb-4c3a-8370-7addbe85f877-attr-3-name" class="er entityLabel">checked</text><rect height="21" width="23.79498291015625" y="66" x="110.73333740234375" class="er attributeBoxOdd"/><text style="dominant-baseline: middle; font-size: 10.2px;" transform="translate(115.73333740234375,76.5)" y="0" x="0" id="text-entity-products-21a9bfc7-99bb-4c3a-8370-7addbe85f877-attr-3-key" class="er entityLabel"/><rect height="21" width="45.453216552734375" y="66" x="134.5283203125" class="er attributeBoxOdd"/><text style="dominant-baseline: middle; font-size: 10.2px;" transform="translate(139.5283203125,76.5)" y="0" x="0" id="text-entity-products-21a9bfc7-99bb-4c3a-8370-7addbe85f877-attr-3-comment" class="er entityLabel"/><rect height="21" width="54.113128662109375" y="87" x="0" class="er attributeBoxEven"/><text style="dominant-baseline: middle; font-size: 10.2px;" transform="translate(5,97.5)" y="0" x="0" id="text-entity-products-21a9bfc7-99bb-4c3a-8370-7addbe85f877-attr-4-type" class="er entityLabel">DateTime</text><rect height="21" width="56.620208740234375" y="87" x="54.113128662109375" class="er attributeBoxEven"/><text style="dominant-baseline: middle; font-size: 10.2px;" transform="translate(59.113128662109375,97.5)" y="0" x="0" id="text-entity-products-21a9bfc7-99bb-4c3a-8370-7addbe85f877-attr-4-name" class="er entityLabel">createdAt</text><rect height="21" width="23.79498291015625" y="87" x="110.73333740234375" class="er attributeBoxEven"/><text style="dominant-baseline: middle; font-size: 10.2px;" transform="translate(115.73333740234375,97.5)" y="0" x="0" id="text-entity-products-21a9bfc7-99bb-4c3a-8370-7addbe85f877-attr-4-key" class="er entityLabel"/><rect height="21" width="45.453216552734375" y="87" x="134.5283203125" class="er attributeBoxEven"/><text style="dominant-baseline: middle; font-size: 10.2px;" transform="translate(139.5283203125,97.5)" y="0" x="0" id="text-entity-products-21a9bfc7-99bb-4c3a-8370-7addbe85f877-attr-4-comment" class="er entityLabel"/><rect height="21" width="54.113128662109375" y="108" x="0" class="er attributeBoxOdd"/><text style="dominant-baseline: middle; font-size: 10.2px;" transform="translate(5,118.5)" y="0" x="0" id="text-entity-products-21a9bfc7-99bb-4c3a-8370-7addbe85f877-attr-5-type" class="er entityLabel">DateTime</text><rect height="21" width="56.620208740234375" y="108" x="54.113128662109375" class="er attributeBoxOdd"/><text style="dominant-baseline: middle; font-size: 10.2px;" transform="translate(59.113128662109375,118.5)" y="0" x="0" id="text-entity-products-21a9bfc7-99bb-4c3a-8370-7addbe85f877-attr-5-name" class="er entityLabel">updatedAt</text><rect height="21" width="23.79498291015625" y="108" x="110.73333740234375" class="er attributeBoxOdd"/><text style="dominant-baseline: middle; font-size: 10.2px;" transform="translate(115.73333740234375,118.5)" y="0" x="0" id="text-entity-products-21a9bfc7-99bb-4c3a-8370-7addbe85f877-attr-5-key" class="er entityLabel"/><rect height="21" width="45.453216552734375" y="108" x="134.5283203125" class="er attributeBoxOdd"/><text style="dominant-baseline: middle; font-size: 10.2px;" transform="translate(139.5283203125,118.5)" y="0" x="0" id="text-entity-products-21a9bfc7-99bb-4c3a-8370-7addbe85f877-attr-5-comment" class="er entityLabel"/><rect height="21" width="54.113128662109375" y="129" x="0" class="er attributeBoxEven"/><text style="dominant-baseline: middle; font-size: 10.2px;" transform="translate(5,139.5)" y="0" x="0" id="text-entity-products-21a9bfc7-99bb-4c3a-8370-7addbe85f877-attr-6-type" class="er entityLabel">DateTime</text><rect height="21" width="56.620208740234375" y="129" x="54.113128662109375" class="er attributeBoxEven"/><text style="dominant-baseline: middle; font-size: 10.2px;" transform="translate(59.113128662109375,139.5)" y="0" x="0" id="text-entity-products-21a9bfc7-99bb-4c3a-8370-7addbe85f877-attr-6-name" class="er entityLabel">deletedAt</text><rect height="21" width="23.79498291015625" y="129" x="110.73333740234375" class="er attributeBoxEven"/><text style="dominant-baseline: middle; font-size: 10.2px;" transform="translate(115.73333740234375,139.5)" y="0" x="0" id="text-entity-products-21a9bfc7-99bb-4c3a-8370-7addbe85f877-attr-6-key" class="er entityLabel"/><rect height="21" width="45.453216552734375" y="129" x="134.5283203125" class="er attributeBoxEven"/><text style="dominant-baseline: middle; font-size: 10.2px;" transform="translate(139.5283203125,139.5)" y="0" x="0" id="text-entity-products-21a9bfc7-99bb-4c3a-8370-7addbe85f877-attr-6-comment" class="er entityLabel">nullable</text><rect height="21" width="54.113128662109375" y="150" x="0" class="er attributeBoxOdd"/><text style="dominant-baseline: middle; font-size: 10.2px;" transform="translate(5,160.5)" y="0" x="0" id="text-entity-products-21a9bfc7-99bb-4c3a-8370-7addbe85f877-attr-7-type" class="er entityLabel">Boolean</text><rect height="21" width="56.620208740234375" y="150" x="54.113128662109375" class="er attributeBoxOdd"/><text style="dominant-baseline: middle; font-size: 10.2px;" transform="translate(59.113128662109375,160.5)" y="0" x="0" id="text-entity-products-21a9bfc7-99bb-4c3a-8370-7addbe85f877-attr-7-name" class="er entityLabel">isDeleted</text><rect height="21" width="23.79498291015625" y="150" x="110.73333740234375" class="er attributeBoxOdd"/><text style="dominant-baseline: middle; font-size: 10.2px;" transform="translate(115.73333740234375,160.5)" y="0" x="0" id="text-entity-products-21a9bfc7-99bb-4c3a-8370-7addbe85f877-attr-7-key" class="er entityLabel"/><rect height="21" width="45.453216552734375" y="150" x="134.5283203125" class="er attributeBoxOdd"/><text style="dominant-baseline: middle; font-size: 10.2px;" transform="translate(139.5283203125,160.5)" y="0" x="0" id="text-entity-products-21a9bfc7-99bb-4c3a-8370-7addbe85f877-attr-7-comment" class="er entityLabel"/></g><g transform="translate(366.2098083496094,259.5 )" id="entity-categories-e492d936-b101-4018-88cc-3c104eaa5c7b"><rect height="150" width="179.98153686523438" y="0" x="0" class="er entityBox"/><text style="dominant-baseline: middle; text-anchor: middle; font-size: 12px;" transform="translate(89.99076843261719,12)" y="0" x="0" id="text-entity-categories-e492d936-b101-4018-88cc-3c104eaa5c7b" class="er entityLabel">categories</text><rect height="21" width="54.113128662109375" y="24" x="0" class="er attributeBoxOdd"/><text style="dominant-baseline: middle; font-size: 10.2px;" transform="translate(5,34.5)" y="0" x="0" id="text-entity-categories-e492d936-b101-4018-88cc-3c104eaa5c7b-attr-1-type" class="er entityLabel">String</text><rect height="21" width="56.620208740234375" y="24" x="54.113128662109375" class="er attributeBoxOdd"/><text style="dominant-baseline: middle; font-size: 10.2px;" transform="translate(59.113128662109375,34.5)" y="0" x="0" id="text-entity-categories-e492d936-b101-4018-88cc-3c104eaa5c7b-attr-1-name" class="er entityLabel">id</text><rect height="21" width="23.79498291015625" y="24" x="110.73333740234375" class="er attributeBoxOdd"/><text style="dominant-baseline: middle; font-size: 10.2px;" transform="translate(115.73333740234375,34.5)" y="0" x="0" id="text-entity-categories-e492d936-b101-4018-88cc-3c104eaa5c7b-attr-1-key" class="er entityLabel">PK</text><rect height="21" width="45.453216552734375" y="24" x="134.5283203125" class="er attributeBoxOdd"/><text style="dominant-baseline: middle; font-size: 10.2px;" transform="translate(139.5283203125,34.5)" y="0" x="0" id="text-entity-categories-e492d936-b101-4018-88cc-3c104eaa5c7b-attr-1-comment" class="er entityLabel"/><rect height="21" width="54.113128662109375" y="45" x="0" class="er attributeBoxEven"/><text style="dominant-baseline: middle; font-size: 10.2px;" transform="translate(5,55.5)" y="0" x="0" id="text-entity-categories-e492d936-b101-4018-88cc-3c104eaa5c7b-attr-2-type" class="er entityLabel">String</text><rect height="21" width="56.620208740234375" y="45" x="54.113128662109375" class="er attributeBoxEven"/><text style="dominant-baseline: middle; font-size: 10.2px;" transform="translate(59.113128662109375,55.5)" y="0" x="0" id="text-entity-categories-e492d936-b101-4018-88cc-3c104eaa5c7b-attr-2-name" class="er entityLabel">name</text><rect height="21" width="23.79498291015625" y="45" x="110.73333740234375" class="er attributeBoxEven"/><text style="dominant-baseline: middle; font-size: 10.2px;" transform="translate(115.73333740234375,55.5)" y="0" x="0" id="text-entity-categories-e492d936-b101-4018-88cc-3c104eaa5c7b-attr-2-key" class="er entityLabel"/><rect height="21" width="45.453216552734375" y="45" x="134.5283203125" class="er attributeBoxEven"/><text style="dominant-baseline: middle; font-size: 10.2px;" transform="translate(139.5283203125,55.5)" y="0" x="0" id="text-entity-categories-e492d936-b101-4018-88cc-3c104eaa5c7b-attr-2-comment" class="er entityLabel"/><rect height="21" width="54.113128662109375" y="66" x="0" class="er attributeBoxOdd"/><text style="dominant-baseline: middle; font-size: 10.2px;" transform="translate(5,76.5)" y="0" x="0" id="text-entity-categories-e492d936-b101-4018-88cc-3c104eaa5c7b-attr-3-type" class="er entityLabel">DateTime</text><rect height="21" width="56.620208740234375" y="66" x="54.113128662109375" class="er attributeBoxOdd"/><text style="dominant-baseline: middle; font-size: 10.2px;" transform="translate(59.113128662109375,76.5)" y="0" x="0" id="text-entity-categories-e492d936-b101-4018-88cc-3c104eaa5c7b-attr-3-name" class="er entityLabel">createdAt</text><rect height="21" width="23.79498291015625" y="66" x="110.73333740234375" class="er attributeBoxOdd"/><text style="dominant-baseline: middle; font-size: 10.2px;" transform="translate(115.73333740234375,76.5)" y="0" x="0" id="text-entity-categories-e492d936-b101-4018-88cc-3c104eaa5c7b-attr-3-key" class="er entityLabel"/><rect height="21" width="45.453216552734375" y="66" x="134.5283203125" class="er attributeBoxOdd"/><text style="dominant-baseline: middle; font-size: 10.2px;" transform="translate(139.5283203125,76.5)" y="0" x="0" id="text-entity-categories-e492d936-b101-4018-88cc-3c104eaa5c7b-attr-3-comment" class="er entityLabel"/><rect height="21" width="54.113128662109375" y="87" x="0" class="er attributeBoxEven"/><text style="dominant-baseline: middle; font-size: 10.2px;" transform="translate(5,97.5)" y="0" x="0" id="text-entity-categories-e492d936-b101-4018-88cc-3c104eaa5c7b-attr-4-type" class="er entityLabel">DateTime</text><rect height="21" width="56.620208740234375" y="87" x="54.113128662109375" class="er attributeBoxEven"/><text style="dominant-baseline: middle; font-size: 10.2px;" transform="translate(59.113128662109375,97.5)" y="0" x="0" id="text-entity-categories-e492d936-b101-4018-88cc-3c104eaa5c7b-attr-4-name" class="er entityLabel">updatedAt</text><rect height="21" width="23.79498291015625" y="87" x="110.73333740234375" class="er attributeBoxEven"/><text style="dominant-baseline: middle; font-size: 10.2px;" transform="translate(115.73333740234375,97.5)" y="0" x="0" id="text-entity-categories-e492d936-b101-4018-88cc-3c104eaa5c7b-attr-4-key" class="er entityLabel"/><rect height="21" width="45.453216552734375" y="87" x="134.5283203125" class="er attributeBoxEven"/><text style="dominant-baseline: middle; font-size: 10.2px;" transform="translate(139.5283203125,97.5)" y="0" x="0" id="text-entity-categories-e492d936-b101-4018-88cc-3c104eaa5c7b-attr-4-comment" class="er entityLabel"/><rect height="21" width="54.113128662109375" y="108" x="0" class="er attributeBoxOdd"/><text style="dominant-baseline: middle; font-size: 10.2px;" transform="translate(5,118.5)" y="0" x="0" id="text-entity-categories-e492d936-b101-4018-88cc-3c104eaa5c7b-attr-5-type" class="er entityLabel">DateTime</text><rect height="21" width="56.620208740234375" y="108" x="54.113128662109375" class="er attributeBoxOdd"/><text style="dominant-baseline: middle; font-size: 10.2px;" transform="translate(59.113128662109375,118.5)" y="0" x="0" id="text-entity-categories-e492d936-b101-4018-88cc-3c104eaa5c7b-attr-5-name" class="er entityLabel">deletedAt</text><rect height="21" width="23.79498291015625" y="108" x="110.73333740234375" class="er attributeBoxOdd"/><text style="dominant-baseline: middle; font-size: 10.2px;" transform="translate(115.73333740234375,118.5)" y="0" x="0" id="text-entity-categories-e492d936-b101-4018-88cc-3c104eaa5c7b-attr-5-key" class="er entityLabel"/><rect height="21" width="45.453216552734375" y="108" x="134.5283203125" class="er attributeBoxOdd"/><text style="dominant-baseline: middle; font-size: 10.2px;" transform="translate(139.5283203125,118.5)" y="0" x="0" id="text-entity-categories-e492d936-b101-4018-88cc-3c104eaa5c7b-attr-5-comment" class="er entityLabel">nullable</text><rect height="21" width="54.113128662109375" y="129" x="0" class="er attributeBoxEven"/><text style="dominant-baseline: middle; font-size: 10.2px;" transform="translate(5,139.5)" y="0" x="0" id="text-entity-categories-e492d936-b101-4018-88cc-3c104eaa5c7b-attr-6-type" class="er entityLabel">Boolean</text><rect height="21" width="56.620208740234375" y="129" x="54.113128662109375" class="er attributeBoxEven"/><text style="dominant-baseline: middle; font-size: 10.2px;" transform="translate(59.113128662109375,139.5)" y="0" x="0" id="text-entity-categories-e492d936-b101-4018-88cc-3c104eaa5c7b-attr-6-name" class="er entityLabel">isDeleted</text><rect height="21" width="23.79498291015625" y="129" x="110.73333740234375" class="er attributeBoxEven"/><text style="dominant-baseline: middle; font-size: 10.2px;" transform="translate(115.73333740234375,139.5)" y="0" x="0" id="text-entity-categories-e492d936-b101-4018-88cc-3c104eaa5c7b-attr-6-key" class="er entityLabel"/><rect height="21" width="45.453216552734375" y="129" x="134.5283203125" class="er attributeBoxEven"/><text style="dominant-baseline: middle; font-size: 10.2px;" transform="translate(139.5283203125,139.5)" y="0" x="0" id="text-entity-categories-e492d936-b101-4018-88cc-3c104eaa5c7b-attr-6-comment" class="er entityLabel"/></g><g transform="translate(20,20 )" id="entity-User-6b41dbe4-d662-43d4-9fdf-d8aa203bad73"><rect height="129" width="131.84262084960938" y="0" x="0" class="er entityBox"/><text style="dominant-baseline: middle; text-anchor: middle; font-size: 12px;" transform="translate(65.92131042480469,12)" y="0" x="0" id="text-entity-User-6b41dbe4-d662-43d4-9fdf-d8aa203bad73" class="er entityLabel">User</text><rect height="21" width="54.113128662109375" y="24" x="0" class="er attributeBoxOdd"/><text style="dominant-baseline: middle; font-size: 10.2px;" transform="translate(5,34.5)" y="0" x="0" id="text-entity-User-6b41dbe4-d662-43d4-9fdf-d8aa203bad73-attr-1-type" class="er entityLabel">Int</text><rect height="21" width="53.93450927734375" y="24" x="54.113128662109375" class="er attributeBoxOdd"/><text style="dominant-baseline: middle; font-size: 10.2px;" transform="translate(59.113128662109375,34.5)" y="0" x="0" id="text-entity-User-6b41dbe4-d662-43d4-9fdf-d8aa203bad73-attr-1-name" class="er entityLabel">id</text><rect height="21" width="23.79498291015625" y="24" x="108.04763793945312" class="er attributeBoxOdd"/><text style="dominant-baseline: middle; font-size: 10.2px;" transform="translate(113.04763793945312,34.5)" y="0" x="0" id="text-entity-User-6b41dbe4-d662-43d4-9fdf-d8aa203bad73-attr-1-key" class="er entityLabel">PK</text><rect height="21" width="54.113128662109375" y="45" x="0" class="er attributeBoxEven"/><text style="dominant-baseline: middle; font-size: 10.2px;" transform="translate(5,55.5)" y="0" x="0" id="text-entity-User-6b41dbe4-d662-43d4-9fdf-d8aa203bad73-attr-2-type" class="er entityLabel">String</text><rect height="21" width="53.93450927734375" y="45" x="54.113128662109375" class="er attributeBoxEven"/><text style="dominant-baseline: middle; font-size: 10.2px;" transform="translate(59.113128662109375,55.5)" y="0" x="0" id="text-entity-User-6b41dbe4-d662-43d4-9fdf-d8aa203bad73-attr-2-name" class="er entityLabel">name</text><rect height="21" width="23.79498291015625" y="45" x="108.04763793945312" class="er attributeBoxEven"/><text style="dominant-baseline: middle; font-size: 10.2px;" transform="translate(113.04763793945312,55.5)" y="0" x="0" id="text-entity-User-6b41dbe4-d662-43d4-9fdf-d8aa203bad73-attr-2-key" class="er entityLabel"/><rect height="21" width="54.113128662109375" y="66" x="0" class="er attributeBoxOdd"/><text style="dominant-baseline: middle; font-size: 10.2px;" transform="translate(5,76.5)" y="0" x="0" id="text-entity-User-6b41dbe4-d662-43d4-9fdf-d8aa203bad73-attr-3-type" class="er entityLabel">String</text><rect height="21" width="53.93450927734375" y="66" x="54.113128662109375" class="er attributeBoxOdd"/><text style="dominant-baseline: middle; font-size: 10.2px;" transform="translate(59.113128662109375,76.5)" y="0" x="0" id="text-entity-User-6b41dbe4-d662-43d4-9fdf-d8aa203bad73-attr-3-name" class="er entityLabel">email</text><rect height="21" width="23.79498291015625" y="66" x="108.04763793945312" class="er attributeBoxOdd"/><text style="dominant-baseline: middle; font-size: 10.2px;" transform="translate(113.04763793945312,76.5)" y="0" x="0" id="text-entity-User-6b41dbe4-d662-43d4-9fdf-d8aa203bad73-attr-3-key" class="er entityLabel"/><rect height="21" width="54.113128662109375" y="87" x="0" class="er attributeBoxEven"/><text style="dominant-baseline: middle; font-size: 10.2px;" transform="translate(5,97.5)" y="0" x="0" id="text-entity-User-6b41dbe4-d662-43d4-9fdf-d8aa203bad73-attr-4-type" class="er entityLabel">String</text><rect height="21" width="53.93450927734375" y="87" x="54.113128662109375" class="er attributeBoxEven"/><text style="dominant-baseline: middle; font-size: 10.2px;" transform="translate(59.113128662109375,97.5)" y="0" x="0" id="text-entity-User-6b41dbe4-d662-43d4-9fdf-d8aa203bad73-attr-4-name" class="er entityLabel">password</text><rect height="21" width="23.79498291015625" y="87" x="108.04763793945312" class="er attributeBoxEven"/><text style="dominant-baseline: middle; font-size: 10.2px;" transform="translate(113.04763793945312,97.5)" y="0" x="0" id="text-entity-User-6b41dbe4-d662-43d4-9fdf-d8aa203bad73-attr-4-key" class="er entityLabel"/><rect height="21" width="54.113128662109375" y="108" x="0" class="er attributeBoxOdd"/><text style="dominant-baseline: middle; font-size: 10.2px;" transform="translate(5,118.5)" y="0" x="0" id="text-entity-User-6b41dbe4-d662-43d4-9fdf-d8aa203bad73-attr-5-type" class="er entityLabel">DateTime</text><rect height="21" width="53.93450927734375" y="108" x="54.113128662109375" class="er attributeBoxOdd"/><text style="dominant-baseline: middle; font-size: 10.2px;" transform="translate(59.113128662109375,118.5)" y="0" x="0" id="text-entity-User-6b41dbe4-d662-43d4-9fdf-d8aa203bad73-attr-5-name" class="er entityLabel">createdAt</text><rect height="21" width="23.79498291015625" y="108" x="108.04763793945312" class="er attributeBoxOdd"/><text style="dominant-baseline: middle; font-size: 10.2px;" transform="translate(113.04763793945312,118.5)" y="0" x="0" id="text-entity-User-6b41dbe4-d662-43d4-9fdf-d8aa203bad73-attr-5-key" class="er entityLabel"/></g><g transform="translate(251.84262084960938,62 )" id="entity-categoryproducts-69eb0b5c-fc27-4d1b-a217-095f6f2e056b"><rect height="45" width="128.734375" y="0" x="0" class="er entityBox"/><text style="dominant-baseline: middle; text-anchor: middle; font-size: 12px;" transform="translate(64.3671875,12)" y="0" x="0" id="text-entity-categoryproducts-69eb0b5c-fc27-4d1b-a217-095f6f2e056b" class="er entityLabel">category_products</text><rect height="21" width="53.523386637369796" y="24" x="0" class="er attributeBoxOdd"/><text style="dominant-baseline: middle; font-size: 10.2px;" transform="translate(5,34.5)" y="0" x="0" id="text-entity-categoryproducts-69eb0b5c-fc27-4d1b-a217-095f6f2e056b-attr-1-type" class="er entityLabel">String</text><rect height="21" width="34.839670817057296" y="24" x="53.523386637369796" class="er attributeBoxOdd"/><text style="dominant-baseline: middle; font-size: 10.2px;" transform="translate(58.523386637369796,34.5)" y="0" x="0" id="text-entity-categoryproducts-69eb0b5c-fc27-4d1b-a217-095f6f2e056b-attr-1-name" class="er entityLabel">id</text><rect height="21" width="40.37131754557292" y="24" x="88.36305745442709" class="er attributeBoxOdd"/><text style="dominant-baseline: middle; font-size: 10.2px;" transform="translate(93.36305745442709,34.5)" y="0" x="0" id="text-entity-categoryproducts-69eb0b5c-fc27-4d1b-a217-095f6f2e056b-attr-1-key" class="er entityLabel">PK</text></g><rect height="14" width="40.69140625" y="161.19393920898438" x="196.80252075195312" class="er relationshipLabelBox"/><text style="text-anchor: middle; dominant-baseline: middle; font-size: 12px;" y="168.19393920898438" x="217.14822387695312" id="rel1" class="er relationshipLabel">product</text><rect height="14" width="46.03125" y="164.89869689941406" x="395.3807067871094" class="er relationshipLabelBox"/><text style="text-anchor: middle; dominant-baseline: middle; font-size: 12px;" y="171.89869689941406" x="418.3963317871094" id="rel2" class="er relationshipLabel">category</text></svg>