<svg aria-roledescription="er" viewBox="0 0 499.34375 320.3671875" style="max-width: 499.344px; background-color: white;" xmlns:xlink="http://www.w3.org/1999/xlink" xmlns="http://www.w3.org/2000/svg" width="100%" id="mermaid-0"><style>#mermaid-0{font-family:"trebuchet ms",verdana,arial,sans-serif;font-size:16px;fill:#000000;}#mermaid-0 .error-icon{fill:#552222;}#mermaid-0 .error-text{fill:#552222;stroke:#552222;}#mermaid-0 .edge-thickness-normal{stroke-width:2px;}#mermaid-0 .edge-thickness-thick{stroke-width:3.5px;}#mermaid-0 .edge-pattern-solid{stroke-dasharray:0;}#mermaid-0 .edge-pattern-dashed{stroke-dasharray:3;}#mermaid-0 .edge-pattern-dotted{stroke-dasharray:2;}#mermaid-0 .marker{fill:#000000;stroke:#000000;}#mermaid-0 .marker.cross{stroke:#000000;}#mermaid-0 svg{font-family:"trebuchet ms",verdana,arial,sans-serif;font-size:16px;}#mermaid-0 .entityBox{fill:#cde498;stroke:#13540c;}#mermaid-0 .attributeBoxOdd{fill:#ffffff;stroke:#13540c;}#mermaid-0 .attributeBoxEven{fill:#f2f2f2;stroke:#13540c;}#mermaid-0 .relationshipLabelBox{fill:hsl(78.1578947368, 58.4615384615%, 84.5098039216%);opacity:0.7;background-color:hsl(78.1578947368, 58.4615384615%, 84.5098039216%);}#mermaid-0 .relationshipLabelBox rect{opacity:0.5;}#mermaid-0 .relationshipLine{stroke:#000000;}#mermaid-0 .entityTitleText{text-anchor:middle;font-size:18px;fill:#000000;}#mermaid-0 :root{--mermaid-font-family:"trebuchet ms",verdana,arial,sans-serif;}</style><g/><defs><marker orient="auto" markerHeight="18" markerWidth="18" refY="9" refX="0" id="ONLY_ONE_START"><path d="M9,0 L9,18 M15,0 L15,18" fill="none" stroke="gray"/></marker></defs><defs><marker orient="auto" markerHeight="18" markerWidth="18" refY="9" refX="18" id="ONLY_ONE_END"><path d="M3,0 L3,18 M9,0 L9,18" fill="none" stroke="gray"/></marker></defs><defs><marker orient="auto" markerHeight="18" markerWidth="30" refY="9" refX="0" id="ZERO_OR_ONE_START"><circle r="6" cy="9" cx="21" fill="white" stroke="gray"/><path d="M9,0 L9,18" fill="none" stroke="gray"/></marker></defs><defs><marker orient="auto" markerHeight="18" markerWidth="30" refY="9" refX="30" id="ZERO_OR_ONE_END"><circle r="6" cy="9" cx="9" fill="white" stroke="gray"/><path d="M21,0 L21,18" fill="none" stroke="gray"/></marker></defs><defs><marker orient="auto" markerHeight="36" markerWidth="45" refY="18" refX="18" id="ONE_OR_MORE_START"><path d="M0,18 Q 18,0 36,18 Q 18,36 0,18 M42,9 L42,27" fill="none" stroke="gray"/></marker></defs><defs><marker orient="auto" markerHeight="36" markerWidth="45" refY="18" refX="27" id="ONE_OR_MORE_END"><path d="M3,9 L3,27 M9,18 Q27,0 45,18 Q27,36 9,18" fill="none" stroke="gray"/></marker></defs><defs><marker orient="auto" markerHeight="36" markerWidth="57" refY="18" refX="18" id="ZERO_OR_MORE_START"><circle r="6" cy="18" cx="48" fill="white" stroke="gray"/><path d="M0,18 Q18,0 36,18 Q18,36 0,18" fill="none" stroke="gray"/></marker></defs><defs><marker orient="auto" markerHeight="36" markerWidth="57" refY="18" refX="39" id="ZERO_OR_MORE_END"><circle r="6" cy="18" cx="9" fill="white" stroke="gray"/><path d="M21,18 Q39,0 57,18 Q39,36 21,18" fill="none" stroke="gray"/></marker></defs><path style="stroke: gray; fill: none;" marker-start="url(#ZERO_OR_MORE_START)" marker-end="url(#ONLY_ONE_END)" d="M205.55379469060415,66.091796875L189.60081849217013,74.42513020833333C173.6478422937361,82.75846354166667,141.74188989686806,99.42513020833333,125.78891369843403,116.091796875C109.8359375,132.75846354166666,109.8359375,149.42513020833334,109.8359375,157.75846354166666L109.8359375,166.091796875" class="er relationshipLine"/><path style="stroke: gray; fill: none;" marker-start="url(#ZERO_OR_MORE_START)" marker-end="url(#ONLY_ONE_END)" d="M293.78995530939585,66.091796875L309.74293150782984,74.42513020833333C325.6959077062639,82.75846354166667,357.6018601031319,99.42513020833333,373.55483630156596,116.091796875C389.5078125,132.75846354166666,389.5078125,149.42513020833334,389.5078125,157.75846354166666L389.5078125,166.091796875" class="er relationshipLine"/><g transform="translate(20,166.091796875 )" id="entity-products-a00de091-4fe7-4318-91ca-34b282bdc386"><rect height="134.275390625" width="179.671875" y="0" x="0" class="er entityBox"/><text style="dominant-baseline: middle; text-anchor: middle; font-size: 12px;" transform="translate(89.8359375,12)" y="0" x="0" id="text-entity-products-a00de091-4fe7-4318-91ca-34b282bdc386" class="er entityLabel">products</text><rect height="22.091796875" width="53.671875" y="24" x="0" class="er attributeBoxOdd"/><text style="dominant-baseline: middle; font-size: 10.2px;" transform="translate(5,35.0458984375)" y="0" x="0" id="text-entity-products-a00de091-4fe7-4318-91ca-34b282bdc386-attr-1-type" class="er entityLabel">String</text><rect height="22.091796875" width="57.65625" y="24" x="53.671875" class="er attributeBoxOdd"/><text style="dominant-baseline: middle; font-size: 10.2px;" transform="translate(58.671875,35.0458984375)" y="0" x="0" id="text-entity-products-a00de091-4fe7-4318-91ca-34b282bdc386-attr-1-name" class="er entityLabel">id</text><rect height="22.091796875" width="21.5625" y="24" x="111.328125" class="er attributeBoxOdd"/><text style="dominant-baseline: middle; font-size: 10.2px;" transform="translate(116.328125,35.0458984375)" y="0" x="0" id="text-entity-products-a00de091-4fe7-4318-91ca-34b282bdc386-attr-1-key" class="er entityLabel">PK</text><rect height="22.091796875" width="46.78125" y="24" x="132.890625" class="er attributeBoxOdd"/><text style="dominant-baseline: middle; font-size: 10.2px;" transform="translate(137.890625,35.0458984375)" y="0" x="0" id="text-entity-products-a00de091-4fe7-4318-91ca-34b282bdc386-attr-1-comment" class="er entityLabel"/><rect height="22.091796875" width="53.671875" y="46.091796875" x="0" class="er attributeBoxEven"/><text style="dominant-baseline: middle; font-size: 10.2px;" transform="translate(5,57.1376953125)" y="0" x="0" id="text-entity-products-a00de091-4fe7-4318-91ca-34b282bdc386-attr-2-type" class="er entityLabel">String</text><rect height="22.091796875" width="57.65625" y="46.091796875" x="53.671875" class="er attributeBoxEven"/><text style="dominant-baseline: middle; font-size: 10.2px;" transform="translate(58.671875,57.1376953125)" y="0" x="0" id="text-entity-products-a00de091-4fe7-4318-91ca-34b282bdc386-attr-2-name" class="er entityLabel">name</text><rect height="22.091796875" width="21.5625" y="46.091796875" x="111.328125" class="er attributeBoxEven"/><text style="dominant-baseline: middle; font-size: 10.2px;" transform="translate(116.328125,57.1376953125)" y="0" x="0" id="text-entity-products-a00de091-4fe7-4318-91ca-34b282bdc386-attr-2-key" class="er entityLabel"/><rect height="22.091796875" width="46.78125" y="46.091796875" x="132.890625" class="er attributeBoxEven"/><text style="dominant-baseline: middle; font-size: 10.2px;" transform="translate(137.890625,57.1376953125)" y="0" x="0" id="text-entity-products-a00de091-4fe7-4318-91ca-34b282bdc386-attr-2-comment" class="er entityLabel"/><rect height="22" width="53.671875" y="68.18359375" x="0" class="er attributeBoxOdd"/><text style="dominant-baseline: middle; font-size: 10.2px;" transform="translate(5,79.18359375)" y="0" x="0" id="text-entity-products-a00de091-4fe7-4318-91ca-34b282bdc386-attr-3-type" class="er entityLabel">DateTime</text><rect height="22" width="57.65625" y="68.18359375" x="53.671875" class="er attributeBoxOdd"/><text style="dominant-baseline: middle; font-size: 10.2px;" transform="translate(58.671875,79.18359375)" y="0" x="0" id="text-entity-products-a00de091-4fe7-4318-91ca-34b282bdc386-attr-3-name" class="er entityLabel">createdAt</text><rect height="22" width="21.5625" y="68.18359375" x="111.328125" class="er attributeBoxOdd"/><text style="dominant-baseline: middle; font-size: 10.2px;" transform="translate(116.328125,79.18359375)" y="0" x="0" id="text-entity-products-a00de091-4fe7-4318-91ca-34b282bdc386-attr-3-key" class="er entityLabel"/><rect height="22" width="46.78125" y="68.18359375" x="132.890625" class="er attributeBoxOdd"/><text style="dominant-baseline: middle; font-size: 10.2px;" transform="translate(137.890625,79.18359375)" y="0" x="0" id="text-entity-products-a00de091-4fe7-4318-91ca-34b282bdc386-attr-3-comment" class="er entityLabel"/><rect height="22.091796875" width="53.671875" y="90.18359375" x="0" class="er attributeBoxEven"/><text style="dominant-baseline: middle; font-size: 10.2px;" transform="translate(5,101.2294921875)" y="0" x="0" id="text-entity-products-a00de091-4fe7-4318-91ca-34b282bdc386-attr-4-type" class="er entityLabel">DateTime</text><rect height="22.091796875" width="57.65625" y="90.18359375" x="53.671875" class="er attributeBoxEven"/><text style="dominant-baseline: middle; font-size: 10.2px;" transform="translate(58.671875,101.2294921875)" y="0" x="0" id="text-entity-products-a00de091-4fe7-4318-91ca-34b282bdc386-attr-4-name" class="er entityLabel">updatedAt</text><rect height="22.091796875" width="21.5625" y="90.18359375" x="111.328125" class="er attributeBoxEven"/><text style="dominant-baseline: middle; font-size: 10.2px;" transform="translate(116.328125,101.2294921875)" y="0" x="0" id="text-entity-products-a00de091-4fe7-4318-91ca-34b282bdc386-attr-4-key" class="er entityLabel"/><rect height="22.091796875" width="46.78125" y="90.18359375" x="132.890625" class="er attributeBoxEven"/><text style="dominant-baseline: middle; font-size: 10.2px;" transform="translate(137.890625,101.2294921875)" y="0" x="0" id="text-entity-products-a00de091-4fe7-4318-91ca-34b282bdc386-attr-4-comment" class="er entityLabel"/><rect height="22" width="53.671875" y="112.275390625" x="0" class="er attributeBoxOdd"/><text style="dominant-baseline: middle; font-size: 10.2px;" transform="translate(5,123.275390625)" y="0" x="0" id="text-entity-products-a00de091-4fe7-4318-91ca-34b282bdc386-attr-5-type" class="er entityLabel">DateTime</text><rect height="22" width="57.65625" y="112.275390625" x="53.671875" class="er attributeBoxOdd"/><text style="dominant-baseline: middle; font-size: 10.2px;" transform="translate(58.671875,123.275390625)" y="0" x="0" id="text-entity-products-a00de091-4fe7-4318-91ca-34b282bdc386-attr-5-name" class="er entityLabel">deletedAt</text><rect height="22" width="21.5625" y="112.275390625" x="111.328125" class="er attributeBoxOdd"/><text style="dominant-baseline: middle; font-size: 10.2px;" transform="translate(116.328125,123.275390625)" y="0" x="0" id="text-entity-products-a00de091-4fe7-4318-91ca-34b282bdc386-attr-5-key" class="er entityLabel"/><rect height="22" width="46.78125" y="112.275390625" x="132.890625" class="er attributeBoxOdd"/><text style="dominant-baseline: middle; font-size: 10.2px;" transform="translate(137.890625,123.275390625)" y="0" x="0" id="text-entity-products-a00de091-4fe7-4318-91ca-34b282bdc386-attr-5-comment" class="er entityLabel">nullable</text></g><g transform="translate(299.671875,166.091796875 )" id="entity-categories-8a428fa3-f94c-4f0c-ac19-b255ffe3e24a"><rect height="134.275390625" width="179.671875" y="0" x="0" class="er entityBox"/><text style="dominant-baseline: middle; text-anchor: middle; font-size: 12px;" transform="translate(89.8359375,12)" y="0" x="0" id="text-entity-categories-8a428fa3-f94c-4f0c-ac19-b255ffe3e24a" class="er entityLabel">categories</text><rect height="22.091796875" width="53.671875" y="24" x="0" class="er attributeBoxOdd"/><text style="dominant-baseline: middle; font-size: 10.2px;" transform="translate(5,35.0458984375)" y="0" x="0" id="text-entity-categories-8a428fa3-f94c-4f0c-ac19-b255ffe3e24a-attr-1-type" class="er entityLabel">String</text><rect height="22.091796875" width="57.65625" y="24" x="53.671875" class="er attributeBoxOdd"/><text style="dominant-baseline: middle; font-size: 10.2px;" transform="translate(58.671875,35.0458984375)" y="0" x="0" id="text-entity-categories-8a428fa3-f94c-4f0c-ac19-b255ffe3e24a-attr-1-name" class="er entityLabel">id</text><rect height="22.091796875" width="21.5625" y="24" x="111.328125" class="er attributeBoxOdd"/><text style="dominant-baseline: middle; font-size: 10.2px;" transform="translate(116.328125,35.0458984375)" y="0" x="0" id="text-entity-categories-8a428fa3-f94c-4f0c-ac19-b255ffe3e24a-attr-1-key" class="er entityLabel">PK</text><rect height="22.091796875" width="46.78125" y="24" x="132.890625" class="er attributeBoxOdd"/><text style="dominant-baseline: middle; font-size: 10.2px;" transform="translate(137.890625,35.0458984375)" y="0" x="0" id="text-entity-categories-8a428fa3-f94c-4f0c-ac19-b255ffe3e24a-attr-1-comment" class="er entityLabel"/><rect height="22.091796875" width="53.671875" y="46.091796875" x="0" class="er attributeBoxEven"/><text style="dominant-baseline: middle; font-size: 10.2px;" transform="translate(5,57.1376953125)" y="0" x="0" id="text-entity-categories-8a428fa3-f94c-4f0c-ac19-b255ffe3e24a-attr-2-type" class="er entityLabel">String</text><rect height="22.091796875" width="57.65625" y="46.091796875" x="53.671875" class="er attributeBoxEven"/><text style="dominant-baseline: middle; font-size: 10.2px;" transform="translate(58.671875,57.1376953125)" y="0" x="0" id="text-entity-categories-8a428fa3-f94c-4f0c-ac19-b255ffe3e24a-attr-2-name" class="er entityLabel">name</text><rect height="22.091796875" width="21.5625" y="46.091796875" x="111.328125" class="er attributeBoxEven"/><text style="dominant-baseline: middle; font-size: 10.2px;" transform="translate(116.328125,57.1376953125)" y="0" x="0" id="text-entity-categories-8a428fa3-f94c-4f0c-ac19-b255ffe3e24a-attr-2-key" class="er entityLabel"/><rect height="22.091796875" width="46.78125" y="46.091796875" x="132.890625" class="er attributeBoxEven"/><text style="dominant-baseline: middle; font-size: 10.2px;" transform="translate(137.890625,57.1376953125)" y="0" x="0" id="text-entity-categories-8a428fa3-f94c-4f0c-ac19-b255ffe3e24a-attr-2-comment" class="er entityLabel"/><rect height="22" width="53.671875" y="68.18359375" x="0" class="er attributeBoxOdd"/><text style="dominant-baseline: middle; font-size: 10.2px;" transform="translate(5,79.18359375)" y="0" x="0" id="text-entity-categories-8a428fa3-f94c-4f0c-ac19-b255ffe3e24a-attr-3-type" class="er entityLabel">DateTime</text><rect height="22" width="57.65625" y="68.18359375" x="53.671875" class="er attributeBoxOdd"/><text style="dominant-baseline: middle; font-size: 10.2px;" transform="translate(58.671875,79.18359375)" y="0" x="0" id="text-entity-categories-8a428fa3-f94c-4f0c-ac19-b255ffe3e24a-attr-3-name" class="er entityLabel">createdAt</text><rect height="22" width="21.5625" y="68.18359375" x="111.328125" class="er attributeBoxOdd"/><text style="dominant-baseline: middle; font-size: 10.2px;" transform="translate(116.328125,79.18359375)" y="0" x="0" id="text-entity-categories-8a428fa3-f94c-4f0c-ac19-b255ffe3e24a-attr-3-key" class="er entityLabel"/><rect height="22" width="46.78125" y="68.18359375" x="132.890625" class="er attributeBoxOdd"/><text style="dominant-baseline: middle; font-size: 10.2px;" transform="translate(137.890625,79.18359375)" y="0" x="0" id="text-entity-categories-8a428fa3-f94c-4f0c-ac19-b255ffe3e24a-attr-3-comment" class="er entityLabel"/><rect height="22.091796875" width="53.671875" y="90.18359375" x="0" class="er attributeBoxEven"/><text style="dominant-baseline: middle; font-size: 10.2px;" transform="translate(5,101.2294921875)" y="0" x="0" id="text-entity-categories-8a428fa3-f94c-4f0c-ac19-b255ffe3e24a-attr-4-type" class="er entityLabel">DateTime</text><rect height="22.091796875" width="57.65625" y="90.18359375" x="53.671875" class="er attributeBoxEven"/><text style="dominant-baseline: middle; font-size: 10.2px;" transform="translate(58.671875,101.2294921875)" y="0" x="0" id="text-entity-categories-8a428fa3-f94c-4f0c-ac19-b255ffe3e24a-attr-4-name" class="er entityLabel">updatedAt</text><rect height="22.091796875" width="21.5625" y="90.18359375" x="111.328125" class="er attributeBoxEven"/><text style="dominant-baseline: middle; font-size: 10.2px;" transform="translate(116.328125,101.2294921875)" y="0" x="0" id="text-entity-categories-8a428fa3-f94c-4f0c-ac19-b255ffe3e24a-attr-4-key" class="er entityLabel"/><rect height="22.091796875" width="46.78125" y="90.18359375" x="132.890625" class="er attributeBoxEven"/><text style="dominant-baseline: middle; font-size: 10.2px;" transform="translate(137.890625,101.2294921875)" y="0" x="0" id="text-entity-categories-8a428fa3-f94c-4f0c-ac19-b255ffe3e24a-attr-4-comment" class="er entityLabel"/><rect height="22" width="53.671875" y="112.275390625" x="0" class="er attributeBoxOdd"/><text style="dominant-baseline: middle; font-size: 10.2px;" transform="translate(5,123.275390625)" y="0" x="0" id="text-entity-categories-8a428fa3-f94c-4f0c-ac19-b255ffe3e24a-attr-5-type" class="er entityLabel">DateTime</text><rect height="22" width="57.65625" y="112.275390625" x="53.671875" class="er attributeBoxOdd"/><text style="dominant-baseline: middle; font-size: 10.2px;" transform="translate(58.671875,123.275390625)" y="0" x="0" id="text-entity-categories-8a428fa3-f94c-4f0c-ac19-b255ffe3e24a-attr-5-name" class="er entityLabel">deletedAt</text><rect height="22" width="21.5625" y="112.275390625" x="111.328125" class="er attributeBoxOdd"/><text style="dominant-baseline: middle; font-size: 10.2px;" transform="translate(116.328125,123.275390625)" y="0" x="0" id="text-entity-categories-8a428fa3-f94c-4f0c-ac19-b255ffe3e24a-attr-5-key" class="er entityLabel"/><rect height="22" width="46.78125" y="112.275390625" x="132.890625" class="er attributeBoxOdd"/><text style="dominant-baseline: middle; font-size: 10.2px;" transform="translate(137.890625,123.275390625)" y="0" x="0" id="text-entity-categories-8a428fa3-f94c-4f0c-ac19-b255ffe3e24a-attr-5-comment" class="er entityLabel">nullable</text></g><g transform="translate(184.9296875,20 )" id="entity-categoryproducts-92601b42-f705-429f-ab97-f466771f6b2b"><rect height="46.091796875" width="129.484375" y="0" x="0" class="er entityBox"/><text style="dominant-baseline: middle; text-anchor: middle; font-size: 12px;" transform="translate(64.7421875,12)" y="0" x="0" id="text-entity-categoryproducts-92601b42-f705-429f-ab97-f466771f6b2b" class="er entityLabel">category_products</text><rect height="22.091796875" width="54.13020833333333" y="24" x="0" class="er attributeBoxOdd"/><text style="dominant-baseline: middle; font-size: 10.2px;" transform="translate(5,35.0458984375)" y="0" x="0" id="text-entity-categoryproducts-92601b42-f705-429f-ab97-f466771f6b2b-attr-1-type" class="er entityLabel">String</text><rect height="22.091796875" width="36.19270833333333" y="24" x="54.13020833333333" class="er attributeBoxOdd"/><text style="dominant-baseline: middle; font-size: 10.2px;" transform="translate(59.13020833333333,35.0458984375)" y="0" x="0" id="text-entity-categoryproducts-92601b42-f705-429f-ab97-f466771f6b2b-attr-1-name" class="er entityLabel">id</text><rect height="22.091796875" width="39.16145833333333" y="24" x="90.32291666666666" class="er attributeBoxOdd"/><text style="dominant-baseline: middle; font-size: 10.2px;" transform="translate(95.32291666666666,35.0458984375)" y="0" x="0" id="text-entity-categoryproducts-92601b42-f705-429f-ab97-f466771f6b2b-attr-1-key" class="er entityLabel">PK</text></g><rect height="14" width="41.734375" y="96.08341979980469" x="120.25273132324219" class="er relationshipLabelBox"/><text style="text-anchor: middle; dominant-baseline: middle; font-size: 12px;" y="103.08341979980469" x="141.1199188232422" id="rel1" class="er relationshipLabel">product</text><rect height="14" width="46.59375" y="96.0833969116211" x="334.9269714355469" class="er relationshipLabelBox"/><text style="text-anchor: middle; dominant-baseline: middle; font-size: 12px;" y="103.0833969116211" x="358.2238464355469" id="rel2" class="er relationshipLabel">category</text></svg>